<svg xmlns="http://www.w3.org/2000/svg" width="236.5" height="85.25" viewBox="0 0 946 341">
  <defs>
    <style>
      .cls-1 {
        fill-rule: evenodd;
      }

      .cls-2 {
        font-size: 78px;
        text-anchor: middle;
        font-family: "Cormorant Garamond";
        font-weight: 500;
      }
    </style>
  </defs>
  <path class="cls-1" d="M134.91,97.55L119.546,56.945c-0.882,1.121-.389.3-1.1,2.195-5.992,13.824-11.607,26.232-15.364,36.216-0.856.134-2.1,0.88-3.293,0,1.214-5.986,19.508-47.735,26.339-75.723l3.292,1.1s22.845,52.879,31.826,76.821h-2.195C153.919,98.078,141.481,97.405,134.91,97.55Zm-17.559-7.682c2.167,5.238-5.3,12.972-8.779,16.462-13.394,13.435-31.709,21.53-42.8,37.313A99.78,99.78,0,0,0,53.7,167.786c-12.85,39.141,10.407,69.387,24.144,92.185H75.649C68.419,248.682,58.14,239.146,52.6,225.95c-2.408-5.739-4.1-13.095-5.487-18.656-2.988-11.95-.6-26.946,2.195-36.216,5.64-18.682,13.7-34.692,27.436-44.995C92.306,114.417,108.475,108.485,117.351,89.868Zm7.682,55.969v1.1h-2.2c-6.844-10.065-11.283-8.162-24.143-8.78l3.292-4.389C114.771,133.826,117.669,140.775,125.033,145.837Zm-21.948,3.293c4.934,0.211,17.516,8.634,17.559,8.779-12.838,2.146-11.813,3.212-25.242,0v-2.195c3.47-.44,4.165-1.08,6.585-2.195-0.439-2.486-1.008-1.189,0-3.292,2.535,3.051,7.084,4.926,10.974,6.585v-2.2C109.292,153.753,105.16,151.7,103.085,149.13Zm2.194,93.282c-11.007-5.838-33.557-3.155-40.6-13.169-5.08-6.5,1.956-13.824,3.292-20.852-3.474-2.61-3.751-4.838-3.292-8.779a9.49,9.49,0,0,0,3.292-4.39c-2.635-2.03-2.989-3.116-3.292-7.682,3.1-2.061,4.738-4.26,5.487-8.779-3.782-3.292-7.815-5.821-8.779-12.072,11-5.563,25.359-14.144,29.631-26.339,2.881-8.223,2.564-15.428,5.487-21.949,1.067,2.282-.616,4.624-1.1,7.682-3.865,24.549-9.772,32.65-28.533,41.7v2.195a15.657,15.657,0,0,1,6.585,9.877c1.509,3.613-4.661,7.066-3.292,10.974,1.434,4.074,3.776,4.123,5.487,7.682-5.918-.074-7.1-0.089-7.682,5.488,6.636,6.623-1.424,14.072,0,23.046,4.473,2.484,9.52,5.193,15.364,6.585,8.794,2.093,16.942-.9,23.046,3.292,6.307,4.331,2.544,12.99,6.584,19.754l21.949-23.046c16.772-23.87,19.764-46.864,15.364-82.308h1.1v1.1c5.434,6.8,4.254,16.021,6.584,26.339,8.051,35.638-20.069,69.58-38.41,83.405-16.986,12.8-28.221,29.9-14.267,51.58h-2.194c-1.968-3.1-6.156-9.431-8.78-12.072-0.407-9.81-.2-15.835,3.292-24.144C103.231,264.118,112.906,261.753,105.279,242.412Zm0,68.041c-9.423-10.876,5.97-27.069,10.975-31.825,5.5-5.23,12.515-8.565,18.656-13.17,20.738-15.549,31.363-42.975,31.826-79.015,6.7,8.712,2.645,32.168,0,41.7-6.155,22.192-13.27,37.956-29.631,49.385-8.677,6.061-22.669,8.811-28.533,17.559-3.123,4.658-1.635,12.849-3.293,16.462v-1.1Zm19.609-207.58c17.94,0,35.426,0,53.707,0v3.159c-4.8-.091-8.805.965-10.742,3.791-3.866,4.9,4.189,16.845,6.319,20.851,10.193,19.169,21.981,37.811,31.592,57.5h1.264c1.318-5.119,4.737-9.061,6.95-13.268,4.331-8.234,7.172-16.672,12-24.642,3.36-5.542,7.543-12.234,10.109-18.324,2.972-7.051,5.765-20.923-2.527-24.01-1.87-1.493-4.9-1.873-8.214-1.9v-3.159c16.826,0,32.74,0,49.284,0v3.159c-20.243,1.534-30.15,23.761-37.911,38.542-3.425,6.525-7.552,13.924-11.373,20.219-2.952,4.865-4,10.3-6.95,15.164-2.745,4.531-7.192,10.634-8.846,15.8v23.379c0,19.682-1.482,43.61,2.527,59.393,2.486,1.41,4.9,3,8.214,3.791,2.93,0.7,6.78-.679,8.846.632,0.507,0.745.489,1.062,0.632,2.527-3.891,1.317-10.829.682-15.8,0.632-2.423-1.526-9.03-.632-12.637-0.632l-30.96.632a9.9,9.9,0,0,1-.632-3.159h0.632v-0.632c8.805,0.35,17.137-.284,18.323-7.582,2.161-3.169,1.264-10.713,1.264-15.8V199.545c-2.345-5.788-8.608-14.649-12-20.219-7.832-12.843-13.83-26.609-21.483-39.175C150.3,130,146.312,116.606,136.893,109.823c-3.121-2.248-8.074-2.161-11.373-4.423C125.013,104.655,125.032,104.338,124.888,102.873Z"/>
  <text id="ORIA" class="cls-2" transform="translate(569.637 282.458) scale(3.249 3.762)"><tspan x="0">ORIA</tspan></text>
</svg>
